<svg width="26" height="25" viewBox="0 0 26 25" fill="none" xmlns="http://www.w3.org/2000/svg">
<g filter="url(#filter0_i_20_216)">
<rect x="1.51945" y="14.6688" width="2.38673" height="5.70163" rx="1.19336" fill="#5E42EC"/>
</g>
<rect x="2.11613" y="15.2655" width="1.19336" height="4.50827" rx="0.596682" stroke="white" stroke-width="1.19336"/>
<rect x="23.7294" y="15.2655" width="1.19336" height="4.50827" rx="0.596682" fill="#5E42EC" stroke="white" stroke-width="1.19336"/>
<line x1="13.9933" y1="6.65601" x2="13.9933" y2="11.2969" stroke="white" stroke-width="1.34679"/>
<g filter="url(#filter1_i_20_216)">
<rect x="10.6676" y="9.04272" width="5.83423" height="3.4475" rx="1.72375" fill="#5E42EC"/>
</g>
<rect x="11.3409" y="9.71612" width="4.48744" height="2.10071" rx="1.05036" stroke="white" stroke-width="1.34679"/>
<g filter="url(#filter2_i_20_216)">
<circle cx="13.5847" cy="4.93196" r="2.12154" fill="#5E42EC"/>
</g>
<circle cx="13.5847" cy="4.93196" r="1.44814" stroke="white" stroke-width="1.34679"/>
<g filter="url(#filter3_i_20_216)">
<path d="M2.71281 19.5C2.71281 14.1953 7.01317 9.8949 12.3179 9.8949H14.7208C20.0256 9.8949 24.326 14.1953 24.326 19.5V19.5C24.326 22.1042 22.2149 24.2153 19.6107 24.2153H7.42805C4.8239 24.2153 2.71281 22.1042 2.71281 19.5V19.5Z" fill="#4353FF"/>
</g>
<path d="M12.3179 10.5683H14.7208C19.6537 10.5683 23.6526 14.5672 23.6526 19.5C23.6526 21.7323 21.843 23.5419 19.6107 23.5419H7.42805C5.1958 23.5419 3.3862 21.7323 3.3862 19.5C3.3862 14.5672 7.38508 10.5683 12.3179 10.5683Z" stroke="white" stroke-width="1.34679"/>
<circle cx="8.94535" cy="14.9337" r="2.24372" fill="white" stroke="white" stroke-width="1.34679"/>
<circle cx="8.94521" cy="14.934" r="1.45856" fill="#0C0C0C"/>
<circle cx="8.41547" cy="14.6682" r="0.530384" fill="white"/>
<circle cx="17.9616" cy="14.9337" r="2.24372" fill="white" stroke="white" stroke-width="1.34679"/>
<circle cx="17.9614" cy="14.934" r="1.45856" fill="#0C0C0C"/>
<circle cx="17.4317" cy="14.6682" r="0.530384" fill="white"/>
<path d="M10.9338 19.5747C11.9946 21.6299 14.978 21.6299 16.1051 19.5747" stroke="white" stroke-width="1.34679" stroke-linecap="round"/>
<path d="M22.3282 14.7926C22.868 14.7241 23.3905 14.5743 23.9137 14.4624C24.2308 14.3944 24.5681 14.2953 24.8189 14.1249C24.9299 14.0583 25.0104 13.966 25.0488 13.8616C25.066 13.7658 25.0436 13.6684 24.9847 13.5831C24.6798 13.0608 24.0593 12.6888 23.7336 12.1754C23.7185 12.1542 23.7107 12.1303 23.711 12.106C23.7113 12.0818 23.7197 12.058 23.7354 12.037C23.751 12.016 23.7733 11.9984 23.8003 11.986C23.8272 11.9736 23.8579 11.9667 23.8892 11.9661C24.4513 11.9452 25.0014 11.8337 25.5043 11.6386C25.2586 11.3881 25.0308 11.128 24.806 10.8657C24.3498 10.334 23.8885 9.79272 23.2406 9.38678C22.6547 9.01982 21.9196 8.77425 21.1556 8.85332C20.9913 8.87003 20.9315 8.69351 21.0281 8.61555C21.5771 8.17565 22.3153 7.90593 23.1037 7.85714C22.9273 7.77243 22.743 7.69798 22.5523 7.6344C21.8749 7.40609 21.1254 7.2964 20.3903 7.25965C19.6758 7.21732 18.9572 7.25672 18.2577 7.37658C18.2117 7.38514 18.1632 7.37983 18.1221 7.36172C18.081 7.34361 18.0504 7.31408 18.0365 7.27914C17.999 7.21009 17.9565 7.14327 17.9103 7.077C17.8159 7.00573 17.7539 6.88489 17.684 6.81083C17.5584 6.67892 17.417 6.55643 17.2617 6.44499C16.6688 6.01643 15.884 5.78211 15.0722 5.79126C14.6552 5.79895 14.2441 5.86892 13.8615 5.99729C13.4793 6.12578 13.1334 6.31079 12.8431 6.54188C12.8274 6.55463 12.8085 6.56485 12.7876 6.57195C12.7594 6.58304 12.7277 6.58758 12.6962 6.58501C12.6647 6.58244 12.6349 6.57287 12.6103 6.55747C12.5821 6.56016 12.5535 6.55823 12.5263 6.5518C12.4991 6.54537 12.474 6.53459 12.4525 6.52016C12.0488 6.26059 11.5637 6.08787 11.0461 6.01943C10.5284 5.951 9.99655 5.98926 9.50415 6.13037C9.43208 6.15153 9.36001 6.17548 9.28794 6.20109C8.77948 6.38823 8.34942 6.68211 8.0469 7.04916C8.02412 7.07603 7.99077 7.09652 7.95177 7.10763C7.91913 7.1176 7.88349 7.12018 7.84902 7.11505C7.81455 7.10992 7.78269 7.0973 7.75718 7.07867C7.6033 6.95868 7.42262 6.86115 7.22387 6.79079C7.0571 6.73879 6.88077 6.70741 6.70136 6.69779C6.37454 6.68151 6.04781 6.73081 5.75293 6.8409C5.45532 6.9504 5.20704 7.12632 5.04016 7.34596C4.87449 7.57102 4.79192 7.8269 4.80145 8.08571C4.81098 8.34453 4.91225 8.59636 5.09421 8.81379C5.10747 8.83093 5.1157 8.85011 5.11832 8.86998C5.12093 8.88985 5.11787 8.90992 5.10935 8.92877C5.10082 8.94763 5.08705 8.9648 5.06899 8.97909C5.05093 8.99338 5.02904 9.00443 5.00485 9.01147C4.98238 9.02009 4.95784 9.02502 4.93278 9.02595C4.60418 9.0347 4.28191 9.09814 3.98794 9.21193C3.88827 9.24983 3.79197 9.2928 3.69967 9.34056C3.37314 9.50659 3.1066 9.73402 2.92506 10.0015C2.74352 10.269 2.65296 10.5677 2.66187 10.8696C2.67533 11.1702 2.78239 11.4637 2.97397 11.7254C3.16555 11.9872 3.43599 12.2093 3.76237 12.3731C3.78589 12.3841 3.80591 12.399 3.82094 12.4167C3.83596 12.4345 3.8456 12.4546 3.84913 12.4757C3.85267 12.4967 3.85001 12.5181 3.84135 12.5382C3.83269 12.5584 3.81825 12.5767 3.79912 12.592C3.72077 12.6458 3.63716 12.695 3.54904 12.739L3.52238 12.7529C3.49283 12.7674 3.46256 12.7807 3.43229 12.7941C3.40202 12.8075 3.38472 12.8147 3.36022 12.8242C3.33572 12.8336 3.31482 12.842 3.28815 12.8498C3.25284 12.8626 3.21608 12.8748 3.18149 12.886L3.1368 12.8999C3.08636 12.9144 3.03591 12.9272 2.98546 12.9389H2.97681C2.43675 13.0603 1.85696 13.0166 1.35741 12.8169C1.37893 12.9141 1.42003 13.008 1.4792 13.0953C1.58527 13.2498 1.73235 13.3853 1.91081 13.4928C2.08927 13.6004 2.2951 13.6777 2.51484 13.7196C3.03663 13.8237 3.58796 13.753 4.08091 13.6015C4.22505 13.5575 4.37568 13.7129 4.28415 13.8059C4.1239 13.9623 4.01919 14.1484 3.98033 14.3456C3.94148 14.5429 3.96983 14.7446 4.06258 14.9308C4.15533 15.117 4.30929 15.2813 4.50927 15.4076C4.70926 15.5338 4.94837 15.6176 5.20304 15.6507C5.29745 15.3784 5.39835 15.1083 5.48411 14.8344C5.48411 14.831 5.48411 14.8277 5.48411 14.8238C5.43118 14.8299 5.37726 14.8288 5.32484 14.8204C4.87512 14.7508 4.63297 14.3371 4.70143 13.9852C4.7699 13.6332 5.06178 13.3376 5.33997 13.0569C4.9712 13.2422 4.53403 13.329 4.09533 13.3042C4.07049 13.3051 4.0457 13.3017 4.02276 13.2943C3.99982 13.2869 3.97931 13.2756 3.96272 13.2613C3.90218 13.1878 4.05137 13.121 4.16163 13.1031C4.58329 13.035 4.97076 12.8748 5.27799 12.6415C5.03047 12.5261 4.83956 12.3504 4.73521 12.1421C4.63086 11.9338 4.61898 11.7046 4.70143 11.4905C4.7663 11.3352 4.9126 11.1781 5.12304 11.1648C5.12344 11.17 5.12344 11.1752 5.12304 11.1804C5.14853 11.1753 5.17521 11.1749 5.20092 11.1792C5.22664 11.1836 5.25067 11.1925 5.27108 11.2054C5.2915 11.2182 5.30771 11.2346 5.31843 11.2532C5.32914 11.2718 5.33405 11.292 5.33276 11.3123C5.3305 11.441 5.36276 11.5686 5.42751 11.6872C5.49226 11.8057 5.58809 11.9126 5.70897 12.0011C6.20192 12.3809 6.92766 12.3993 7.55034 12.2178C7.62241 12.196 7.69448 12.1715 7.77015 12.1437C8.29482 11.9443 8.77913 11.5924 8.86489 11.1369C8.86958 11.1181 8.88019 11.1005 8.89577 11.0857C8.91136 11.0708 8.93145 11.0592 8.95426 11.0517C8.99691 11.0343 9.04624 11.0291 9.09335 11.0373C9.13873 11.048 9.17708 11.0718 9.20053 11.1036C9.22398 11.1355 9.23076 11.1731 9.21947 11.2088C9.18351 11.3849 9.09896 11.5529 8.97155 11.7016C9.26968 11.882 9.62284 12.0001 9.9971 12.0446C10.354 12.0897 10.7195 12.071 11.0656 11.9902C11.4118 11.9093 11.7294 11.7683 11.9942 11.5779C12.5206 11.1932 12.8374 10.6679 12.8799 10.109C12.8734 10.0533 12.8655 10.0021 12.859 9.95921C12.8522 9.93179 12.8541 9.90349 12.8648 9.8768C12.882 9.85521 12.9068 9.83779 12.9362 9.82647C12.9656 9.81516 12.9985 9.81041 13.0312 9.81276C13.2986 9.80942 13.5213 9.96311 13.7029 10.1146C13.8636 10.2431 14.0099 10.3819 14.1404 10.5294C14.2105 10.6111 14.2699 10.6981 14.3177 10.7889C14.3835 10.915 14.4269 11.0475 14.4467 11.1826C14.4481 11.2151 14.4466 11.2477 14.4424 11.28C14.676 10.9941 14.991 10.7532 15.3634 10.5756C15.3735 10.5709 15.3841 10.5668 15.3951 10.5634C15.5501 10.5105 15.6834 10.6514 15.6171 10.7638C15.4742 10.9987 15.3571 11.2423 15.2668 11.4922L15.2906 11.4688C15.3785 11.3747 15.4708 11.2834 15.5688 11.1954C15.7625 11.0186 15.9843 10.8614 16.229 10.7277C16.5843 10.5378 17.1161 10.3111 17.5543 10.4381C17.5643 10.4403 17.5736 10.4441 17.5817 10.4492C17.5894 10.4561 17.5942 10.4647 17.5954 10.4737C17.5966 10.4946 17.5897 10.5152 17.5756 10.533C17.5615 10.5508 17.5407 10.5648 17.5161 10.5734C17.4664 10.5893 17.414 10.5995 17.3604 10.6035C17.1978 10.6249 17.0441 10.6761 16.9122 10.7527C16.7961 10.8295 16.6985 10.9215 16.6239 11.0244C16.5879 11.0701 16.567 11.1358 16.6239 11.1703C16.646 11.1805 16.6716 11.1853 16.6973 11.1842C16.723 11.183 16.7477 11.1758 16.768 11.1637C16.8406 11.1209 16.9058 11.0711 16.9619 11.0155C17.2163 10.8145 17.8628 10.7583 18.0105 11.084C18.0653 11.2049 18.0105 11.3374 17.9673 11.461C17.923 11.5864 17.889 11.7138 17.8657 11.8424C17.857 11.8997 17.8541 11.9574 17.857 12.0151C17.8815 12.3909 18.2527 12.7417 18.706 12.867C19.0936 12.9686 19.5169 12.9508 19.8879 12.8175C20.0091 12.7748 20.1233 12.7211 20.2281 12.6577C20.2471 12.6461 20.2682 12.6367 20.2908 12.6298C20.3232 12.6171 20.36 12.6127 20.3959 12.6172C20.4318 12.6217 20.4649 12.6349 20.4904 12.6549C20.5238 12.6812 20.5425 12.7166 20.5425 12.7534C20.5425 12.7903 20.5238 12.8257 20.4904 12.852C20.3992 12.9068 20.3028 12.9563 20.2022 13.0001H20.1985C20.1676 13.0135 20.1358 13.0268 20.1041 13.0391L20.0933 13.0436C20.0128 13.0743 19.9301 13.1012 19.8454 13.1243L19.7733 13.1427L19.7337 13.151L19.6883 13.161C19.744 13.3177 19.8464 13.462 19.9874 13.5826C20.3477 13.89 20.8587 14.028 21.3863 14.0247C21.6884 14.0199 21.9879 13.9793 22.2742 13.9044C22.3578 13.8827 22.4464 13.8593 22.5322 13.8298C22.6746 13.7856 22.7976 13.7108 22.8867 13.6143C22.9072 13.5889 22.9378 13.5693 22.9739 13.5586C23.1181 13.5119 23.3084 13.6282 23.2046 13.753C23.173 13.7905 23.1368 13.8255 23.0965 13.8577C22.98 13.9613 22.8311 14.04 22.664 14.0865C22.6172 14.1032 22.5689 14.1183 22.5199 14.1322C22.2374 14.3126 21.774 14.4663 21.5751 14.5309C21.5945 14.5899 21.619 14.6484 21.6471 14.7057C21.8302 14.7709 22.0183 14.8282 22.2086 14.8789C22.2167 14.8576 22.2321 14.8383 22.2531 14.8231C22.2741 14.8079 22.3001 14.7974 22.3282 14.7926Z" fill="white"/>
<path d="M22.5206 14.1322C22.5696 14.1183 22.6179 14.1032 22.6648 14.0865C22.8273 14.0334 22.9743 13.9555 23.0972 13.8577C23.1375 13.8255 23.1737 13.7905 23.2053 13.753C23.3091 13.6282 23.1159 13.5119 22.9747 13.5586C22.9412 13.5703 22.9132 13.5898 22.8947 13.6143C22.8045 13.7126 22.6793 13.7884 22.5343 13.8326C22.4486 13.8621 22.3599 13.8883 22.2763 13.9072C21.9894 13.9825 21.6892 14.0232 21.3863 14.028C20.8587 14.028 20.3477 13.8905 19.9874 13.5826C19.8459 13.4615 19.7435 13.3163 19.6883 13.1588L19.7337 13.1499L19.7733 13.1416L19.8454 13.1232C19.9301 13.1001 20.0128 13.0731 20.0933 13.0424L20.1041 13.038C20.1358 13.0257 20.1676 13.0124 20.1985 12.999H20.2022C20.3028 12.9552 20.3992 12.9056 20.4904 12.8509C20.5238 12.8246 20.5425 12.7892 20.5425 12.7523C20.5425 12.7155 20.5238 12.6801 20.4904 12.6538C20.4649 12.6338 20.4318 12.6206 20.3959 12.6161C20.36 12.6116 20.3232 12.616 20.2908 12.6287C20.2709 12.635 20.2522 12.6434 20.2353 12.6538C20.1285 12.7187 20.0118 12.7733 19.8879 12.8164C19.5169 12.9497 19.0936 12.9674 18.706 12.8659C18.2527 12.7406 17.8815 12.3898 17.857 12.014C17.8541 11.9563 17.857 11.8986 17.8657 11.8413C17.889 11.7127 17.923 11.5853 17.9673 11.4599C18.0112 11.3363 18.0653 11.2038 18.0105 11.0829C17.8664 10.7572 17.2178 10.8134 16.9619 11.0144C16.9058 11.07 16.8406 11.1198 16.768 11.1625C16.7477 11.1747 16.723 11.1819 16.6973 11.183C16.6716 11.1842 16.646 11.1794 16.6239 11.1692C16.5691 11.1369 16.59 11.069 16.6239 11.0233C16.6985 10.9203 16.7961 10.8284 16.9122 10.7516C17.0441 10.675 17.1978 10.6238 17.3604 10.6024C17.414 10.5984 17.4664 10.5882 17.5161 10.5723C17.5407 10.5637 17.5615 10.5496 17.5756 10.5319C17.5897 10.5141 17.5966 10.4935 17.5954 10.4726C17.5942 10.4636 17.5894 10.455 17.5817 10.4481C17.5736 10.443 17.5643 10.4392 17.5543 10.437C17.1161 10.31 16.5843 10.5367 16.229 10.7265C15.9843 10.8603 15.7625 11.0175 15.5688 11.1943C15.4708 11.2823 15.3785 11.3736 15.2906 11.4677L15.2668 11.4911C15.3571 11.2412 15.4742 10.9975 15.6171 10.7627C15.6856 10.6514 15.5501 10.5094 15.3951 10.5623C15.3865 10.5649 15.3783 10.5683 15.3706 10.5723C14.9944 10.7513 14.6765 10.9948 14.4416 11.2839V11.2789C14.4459 11.2466 14.4474 11.214 14.446 11.1815C14.4262 11.0463 14.3828 10.9139 14.317 10.7878C14.2692 10.697 14.2098 10.61 14.1397 10.5283C14.0092 10.3808 13.8628 10.242 13.7022 10.1135C13.5206 9.96199 13.2979 9.80831 13.0305 9.81165C12.9978 9.8093 12.9649 9.81405 12.9355 9.82536C12.9061 9.83667 12.8813 9.8541 12.864 9.87568C12.8534 9.90238 12.8514 9.93067 12.8583 9.9581C12.8648 10.001 12.8727 10.0522 12.8792 10.1079L12.8835 10.1396C12.8305 10.6862 12.5157 11.1978 12.0006 11.5746C11.7346 11.765 11.4161 11.9061 11.0691 11.9873C10.7222 12.0685 10.3558 12.0877 9.99782 12.0435C9.62356 11.999 9.27041 11.8808 8.97228 11.7005C9.09968 11.5518 9.18423 11.3837 9.22019 11.2076C9.23148 11.172 9.2247 11.1344 9.20125 11.1025C9.1778 11.0706 9.13946 11.0469 9.09407 11.0361C9.04696 11.028 8.99763 11.0331 8.95498 11.0506C8.93386 11.0585 8.91544 11.0702 8.90117 11.0846C8.88691 11.099 8.8772 11.1158 8.87282 11.1336C8.78634 11.5908 8.29626 11.9438 7.77088 12.1426C7.69881 12.1704 7.62674 12.1949 7.55106 12.2166C6.92838 12.3982 6.20264 12.3798 5.70969 12C5.58881 11.9115 5.49298 11.8046 5.42823 11.6861C5.36348 11.5675 5.33122 11.4399 5.33348 11.3112C5.33477 11.2909 5.32986 11.2706 5.31915 11.2521C5.30843 11.2335 5.29222 11.2171 5.2718 11.2043C5.25139 11.1914 5.22736 11.1825 5.20164 11.1781C5.17593 11.1738 5.14925 11.1742 5.12376 11.1792C5.12417 11.1741 5.12417 11.1688 5.12376 11.1637C4.91332 11.177 4.76341 11.3341 4.70215 11.4894C4.6197 11.7035 4.63158 11.9327 4.73593 12.141C4.84028 12.3493 5.03119 12.525 5.27871 12.6404C4.97148 12.8737 4.58401 13.0339 4.16235 13.102C4.05209 13.1198 3.9029 13.1867 3.96344 13.2602C3.98003 13.2745 4.00054 13.2858 4.02348 13.2932C4.04642 13.3006 4.07121 13.304 4.09605 13.303C4.537 13.3295 4.97694 13.243 5.3479 13.0569C5.06755 13.3353 4.77783 13.6349 4.70936 13.9852C4.65171 14.282 4.8153 14.6578 5.19439 14.7842C5.48267 14.8795 5.51438 14.7686 5.59005 14.5782C5.85815 13.9055 5.85022 13.1995 6.18535 12.5402L6.25741 12.558C7.06748 12.725 7.95105 12.4767 8.56364 12.0618C8.62951 12.0171 8.69229 11.9697 8.75174 11.9198C9.06829 12.1057 9.43403 12.2352 9.82283 12.2992C10.2116 12.3632 10.6139 12.3601 11.001 12.2901C11.8205 12.1476 12.5015 11.6977 12.8842 11.1275C12.9202 11.0718 12.952 11.0189 12.9829 10.9638C13.5559 10.9565 13.9559 11.3396 14.2708 11.6643C14.3429 11.7383 14.5195 11.7695 14.5822 11.6643C14.6945 11.4751 14.8446 11.3007 15.0268 11.1475C14.9479 11.3255 14.882 11.5067 14.8294 11.6904C14.821 11.717 14.8228 11.7448 14.8345 11.7705C14.8462 11.7963 14.8674 11.8189 14.8954 11.8355C14.9234 11.8521 14.9571 11.8621 14.9923 11.8642C15.0276 11.8664 15.0628 11.8605 15.0939 11.8475C15.4522 11.711 15.846 11.6391 16.2455 11.6374C16.645 11.6356 17.0398 11.7041 17.4001 11.8374C17.431 11.8492 17.4651 11.8549 17.4995 11.8541C17.4917 11.9072 17.4893 11.9606 17.4923 12.014C17.5089 12.2495 17.6149 12.4762 17.7972 12.6655C17.9728 12.8478 18.2052 12.9928 18.4729 13.0871C18.7405 13.1813 19.0347 13.2217 19.3279 13.2045C19.4512 13.6065 19.8476 13.9451 20.3218 14.1261C20.3939 14.1522 20.4616 14.1745 20.533 14.1951C20.6043 14.2157 20.672 14.2307 20.7427 14.2447C20.7389 14.2556 20.7362 14.2668 20.7347 14.2781V14.3059L20.7794 14.3293C20.8335 14.3577 20.889 14.385 20.9452 14.4128C20.9892 14.4345 21.0338 14.4557 21.0785 14.4769C21.2629 14.561 21.4526 14.6377 21.6471 14.7068C21.6205 14.6512 21.596 14.591 21.5751 14.532C21.7747 14.4646 22.2381 14.3126 22.5206 14.1322Z" fill="#4353FF"/>
<path d="M25.9072 11.5857C25.3515 11.0495 24.9198 10.4448 24.3757 9.90186C23.8712 9.39792 23.2529 8.95523 22.4795 8.71578C22.2151 8.63254 21.9355 8.58145 21.6507 8.56432C22.2269 8.23635 22.9399 8.0848 23.6521 8.1389C23.8071 8.15059 23.8907 7.97797 23.7797 7.90113C23.2233 7.51524 22.5141 7.28303 21.7949 7.14382C21.0128 6.99629 20.2066 6.93998 19.4029 6.97677C19.0359 6.9927 18.6709 7.02993 18.311 7.08814C17.9515 6.50077 17.3362 6.02971 16.5727 5.75729C15.7331 5.46362 14.7775 5.4378 13.9134 5.68546C13.4463 5.81697 13.0197 6.02215 12.6608 6.28796C12.0815 5.92519 11.3637 5.71973 10.6183 5.70328C9.88449 5.68978 9.16584 5.86618 8.57661 6.20443C8.3014 6.36306 8.05847 6.55263 7.85592 6.76684C7.7324 6.6842 7.59493 6.61489 7.44728 6.56081C7.27085 6.49749 7.08342 6.45435 6.89091 6.43274C6.4982 6.38926 6.09759 6.42771 5.73059 6.54411C5.36021 6.65904 5.04065 6.85414 4.81026 7.10596C4.59994 7.3484 4.47417 7.62867 4.44514 7.91967C4.4161 8.21067 4.48477 8.50253 4.6445 8.76701C4.24399 8.81421 3.86138 8.92765 3.52282 9.09957C3.18426 9.2715 2.89771 9.49786 2.68277 9.7632C2.1963 10.3657 2.19125 11.1197 2.58547 11.7528C2.76756 12.0452 3.03558 12.3008 3.36815 12.499C2.75988 12.8175 1.87054 12.8125 1.29182 12.4533C1.26613 12.4348 1.2341 12.4224 1.19955 12.4176C1.16499 12.4128 1.12937 12.4157 1.09694 12.4261C1.0645 12.4365 1.03661 12.4539 1.0166 12.4762C0.996595 12.4985 0.985307 12.5247 0.984086 12.5519C0.933637 12.9556 1.17939 13.3559 1.56064 13.6271C1.99306 13.9362 2.58331 14.0665 3.16635 14.0436C3.36332 14.0356 3.55881 14.0128 3.75012 13.9757C3.62168 14.2267 3.58309 14.4999 3.63841 14.7664C3.68117 14.9531 3.77196 15.1312 3.90541 15.2903C4.03885 15.4493 4.21225 15.5861 4.41532 15.6924C4.63581 15.8104 4.88776 15.8886 5.15259 15.9213C5.19851 15.9302 5.24709 15.9251 5.28827 15.907C5.32946 15.889 5.36009 15.8594 5.37384 15.8244C5.38628 15.7888 5.3801 15.7509 5.35664 15.7188C5.33317 15.6867 5.29431 15.663 5.24844 15.6529L5.20664 15.6468C4.95272 15.6134 4.7144 15.5295 4.51506 15.4035C4.31571 15.2775 4.16217 15.1136 4.06952 14.9279C3.97686 14.7422 3.94826 14.5411 3.98652 14.3443C4.02477 14.1475 4.12858 13.9618 4.28775 13.8053C4.37928 13.7112 4.22577 13.557 4.08452 13.601C3.59156 13.7524 3.04023 13.8237 2.51845 13.719C2.29844 13.6769 2.09245 13.5993 1.91397 13.4913C1.7355 13.3833 1.58856 13.2475 1.48281 13.0926C1.42363 13.0052 1.38253 12.9113 1.36101 12.8141C1.36101 12.8141 1.36101 12.8102 1.36101 12.8086C1.85899 13.0101 2.43803 13.0566 2.97897 12.9383H2.98762C3.03807 12.9266 3.08852 12.9138 3.13897 12.8993L3.18365 12.8854C3.21968 12.8743 3.25572 12.862 3.29031 12.8492C3.31337 12.8414 3.33644 12.8325 3.36238 12.8236C3.38833 12.8147 3.41067 12.8036 3.43445 12.7935C3.45823 12.7835 3.49499 12.7668 3.52454 12.7523L3.5512 12.7384C3.63932 12.6944 3.72293 12.6453 3.80129 12.5914C3.82042 12.5762 3.83485 12.5578 3.84351 12.5377C3.85217 12.5175 3.85483 12.4962 3.8513 12.4751C3.84776 12.4541 3.83812 12.4339 3.8231 12.4162C3.80808 12.3984 3.78805 12.3835 3.76453 12.3726C3.43816 12.2088 3.16771 11.9866 2.97613 11.7249C2.78456 11.4632 2.67749 11.1696 2.66403 10.8691C2.65501 10.5674 2.74531 10.2689 2.92645 10.0015C3.10759 9.73417 3.37365 9.50674 3.69967 9.34056C3.79197 9.2928 3.88827 9.24983 3.98794 9.21193C4.28448 9.09618 4.6101 9.03176 4.94215 9.02316C4.965 9.02251 4.98749 9.01854 5.00845 9.01147C5.03264 9.00443 5.05454 8.99338 5.07259 8.97909C5.09065 8.9648 5.10443 8.94763 5.11295 8.92877C5.12147 8.90992 5.12454 8.88985 5.12192 8.86998C5.11931 8.85011 5.11108 8.83093 5.09782 8.81379C4.91529 8.59662 4.8134 8.34492 4.80324 8.0861C4.79307 7.82729 4.87502 7.57127 5.04016 7.34596C5.20628 7.12665 5.4535 6.95076 5.75005 6.8409C6.04676 6.72894 6.37619 6.67884 6.70569 6.69557C6.88616 6.70484 7.06355 6.73643 7.23107 6.78912C7.42958 6.85982 7.61018 6.95731 7.76439 7.077C7.78881 7.09511 7.81923 7.10766 7.85229 7.11326C7.88536 7.11886 7.91978 7.1173 7.95177 7.10874C7.99125 7.09745 8.02489 7.07653 8.04762 7.04916C8.35014 6.68211 8.7802 6.38823 9.28866 6.20109C9.36073 6.17436 9.4364 6.14986 9.51208 6.12759C10.1415 5.94643 10.8318 5.93564 11.4702 6.09696C11.8325 6.18659 12.1688 6.32975 12.4604 6.51849C12.4818 6.53299 12.507 6.54386 12.5342 6.55038C12.5613 6.5569 12.59 6.55894 12.6183 6.55636C12.6419 6.57097 12.6703 6.58026 12.7003 6.58321C12.7303 6.58615 12.7608 6.58264 12.7884 6.57306C12.8092 6.56596 12.8281 6.55574 12.8439 6.54299C13.4322 6.07451 14.2349 5.803 15.0794 5.7868C15.8917 5.77836 16.6764 6.01394 17.2682 6.44387C17.5242 6.62695 17.7403 6.84074 17.9082 7.077C17.9543 7.14327 17.9968 7.21009 18.0343 7.27914C18.0482 7.31444 18.0792 7.34426 18.1208 7.3624C18.1624 7.38054 18.2114 7.38562 18.2577 7.37658C18.959 7.25553 19.6795 7.21538 20.396 7.25742C21.1311 7.29417 21.8807 7.40387 22.5581 7.63217C22.7488 7.69576 22.9331 7.77021 23.1094 7.85491C22.321 7.9037 21.5829 8.17342 21.0338 8.61333C20.9373 8.69128 20.9971 8.8678 21.1614 8.8511C21.9253 8.7737 22.6604 9.01815 23.2464 9.38455C23.895 9.79049 24.3555 10.3312 24.8117 10.8635C25.0366 11.1258 25.2643 11.3858 25.5101 11.6364C25.0069 11.833 24.456 11.9459 23.8928 11.9677C23.8615 11.9684 23.8308 11.9752 23.8039 11.9877C23.7769 12.0001 23.7546 12.0176 23.739 12.0387C23.7233 12.0597 23.715 12.0835 23.7146 12.1077C23.7143 12.132 23.7221 12.1558 23.7372 12.1771C24.0629 12.6905 24.6834 13.0625 24.9883 13.5848C25.0472 13.6701 25.0696 13.7675 25.0524 13.8632C25.014 13.9677 24.9335 14.06 24.8225 14.1266C24.5717 14.297 24.2344 14.3961 23.9173 14.4641C23.3905 14.5754 22.868 14.7258 22.3318 14.7943C22.3036 14.799 22.2775 14.8095 22.2563 14.8246C22.2351 14.8398 22.2196 14.8592 22.2115 14.8806C22.2835 14.9001 22.3599 14.919 22.4341 14.9363C22.4421 14.9569 22.4507 14.9786 22.4608 14.9997C22.4709 15.0209 22.4774 15.0359 22.4875 15.0554C22.5595 15.046 22.6273 15.0348 22.6965 15.0226L22.7685 15.0092C23.1707 14.9335 23.5613 14.8254 23.9627 14.7447C24.3437 14.6747 24.7017 14.5445 25.0142 14.3622C25.3025 14.1867 25.4848 13.9312 25.3962 13.6444C25.3076 13.3576 25.0488 13.1065 24.8233 12.8787C24.607 12.6649 24.375 12.4561 24.1883 12.2261C24.7799 12.1747 25.352 12.0317 25.8704 11.8057C25.894 11.7946 25.914 11.7796 25.929 11.7618C25.9441 11.7439 25.9537 11.7237 25.9572 11.7025C25.9608 11.6814 25.9581 11.66 25.9494 11.6397C25.9408 11.6195 25.9263 11.6011 25.9072 11.5857Z" fill="#4353FF"/>
<path d="M16.498 10.0279C16.498 10.0279 16.498 10.0337 16.5035 10.0337C16.4599 10.0221 16.4218 10.0163 16.3782 10.0047C16.4218 10.0163 16.4599 10.0221 16.498 10.0279ZM15.5342 12.54C15.5342 12.5458 15.5342 12.5458 15.5342 12.54Z" fill="#4353FF"/>
<path d="M9.77842 11.9772C9.96357 12.2499 10.3284 12.2731 10.6442 12.2789C12.3432 12.2963 14.0422 12.3195 15.7411 12.3369C15.7956 12.3369 15.85 12.3369 15.899 12.3137C15.9698 12.2789 16.0134 12.2035 16.0515 12.1339C16.2693 11.7103 16.4055 11.2404 16.4599 10.7589C16.4708 10.637 16.4817 10.5094 16.4272 10.3992C16.3292 10.1845 16.0624 10.1381 15.8391 10.1207C14.7555 10.0279 13.6664 9.95827 12.5828 9.90605C11.7442 9.86544 10.6497 9.55796 10.0344 10.3238C9.65862 10.7821 9.3918 11.4145 9.77842 11.9772Z" fill="#D3D3D3"/>
<path d="M10.5898 9.92346C12.1472 9.79582 13.7209 9.84803 15.2619 10.0917C15.6976 10.1613 16.1278 10.2425 16.5579 10.3412C16.7267 10.3818 16.803 10.1033 16.6287 10.0627C15.0877 9.7146 13.5085 9.54055 11.9294 9.56376C11.4828 9.56956 11.0309 9.59277 10.5843 9.62758C10.5135 9.63338 10.4482 9.69139 10.4482 9.77261C10.4537 9.85384 10.5135 9.92926 10.5898 9.92346Z" fill="#4353FF"/>
<path d="M8.624 12.2499C8.92349 12.2789 9.22299 12.3369 9.51704 12.3949C9.81654 12.4529 10.1215 12.5052 10.4264 12.54C11.0363 12.6154 11.6462 12.6386 12.2615 12.6676C13.4758 12.7256 14.6902 12.7894 15.9045 12.8532C16.5961 12.8881 17.2876 12.9229 17.9792 12.9577C18.1534 12.9635 18.1534 12.6734 17.9792 12.6676C16.7594 12.6096 15.5451 12.5458 14.3253 12.4819C13.7154 12.4529 13.1001 12.4181 12.4902 12.3891C11.8749 12.3601 11.265 12.3369 10.6497 12.2731C10.3121 12.2383 9.97446 12.1861 9.64229 12.1222C9.30467 12.0584 8.96706 11.9888 8.624 11.954C8.55321 11.9482 8.48786 12.0236 8.48786 12.099C8.48786 12.1861 8.54776 12.2441 8.624 12.2499Z" fill="#4353FF"/>
<path d="M18.7361 12.9925C19.1881 13.0041 19.64 12.9809 20.0866 12.9113C20.1955 12.8939 20.3044 12.8765 20.4133 12.8532C20.5113 12.8358 20.6474 12.83 20.7182 12.7546C20.7999 12.6676 20.7727 12.5168 20.7727 12.4065C20.7727 12.2847 20.7727 12.1571 20.7672 12.0352C20.7672 11.8496 20.495 11.8496 20.495 12.0352C20.495 12.1339 20.495 12.2325 20.495 12.3369C20.495 12.3833 20.495 12.4297 20.495 12.4819C20.495 12.5052 20.495 12.5284 20.495 12.5516C20.495 12.5632 20.495 12.569 20.495 12.5806C20.495 12.6096 20.495 12.6096 20.495 12.5806C20.5113 12.5632 20.5276 12.5458 20.544 12.5284C20.5004 12.5632 20.3969 12.5632 20.3425 12.5748C20.2717 12.5864 20.1955 12.6038 20.1192 12.6154C19.9668 12.6386 19.8143 12.6618 19.6564 12.6734C19.346 12.7024 19.0356 12.714 18.7198 12.7024C18.5618 12.6966 18.5618 12.9867 18.7361 12.9925Z" fill="#4353FF"/>
<path d="M16.4599 9.53475C16.9609 10.9329 17.647 12.2499 18.4965 13.4392C18.8613 12.6154 19.0519 11.7045 19.0628 10.7879C19.8578 11.5537 20.7237 12.3543 21.7855 12.4703C21.6929 11.6813 21.437 10.9155 21.0395 10.2425L21.0831 10.1497C22.1613 10.1207 23.1578 9.55216 24.0998 9.00101C23.1196 8.13077 22.0578 7.36496 20.9306 6.72679L21.7692 7.21412C22.3736 6.61076 22.9944 6.0248 23.6206 5.45045C22.2375 4.82968 20.7128 4.55121 19.2153 4.64403L19.2098 4.60342C19.444 3.53593 19.6781 2.46264 19.9123 1.39515C18.5401 1.70844 17.2386 2.38142 16.155 3.33288L16.1659 3.28066C15.7792 2.22478 15.36 1.1805 14.9134 0.15362C14.1674 1.12828 13.5412 2.20157 13.0457 3.33868H12.9368C11.7442 3.06601 10.5898 2.57867 9.54427 1.90569C9.66951 2.92677 9.8601 3.93624 10.1051 4.92831C8.90716 5.00373 7.72006 5.25319 6.58742 5.67091C7.12651 6.3903 7.69828 7.08649 8.29727 7.74787C7.60571 8.47306 6.91414 9.18666 6.21713 9.90605C6.85424 9.98147 7.48591 10.0511 8.12302 10.1265C8.05223 10.8517 7.98689 11.5827 7.9161 12.3079C8.90171 11.6465 9.78387 10.7995 10.5081 9.81323C12.5338 9.76101 14.5867 9.69139 16.5852 10.0395C16.6233 10.0453 16.6723 10.0627 16.6723 10.1033" fill="white"/>
<path d="M10.4101 9.7146C9.69129 10.6893 8.82548 11.5247 7.84531 12.1861C7.9161 12.2267 7.98144 12.2673 8.05223 12.3137C8.12302 11.5885 8.18837 10.8575 8.25916 10.1323C8.2646 10.0511 8.18837 9.99307 8.12302 9.98727C7.48591 9.91185 6.85424 9.84223 6.21713 9.76681C6.24981 9.84803 6.28248 9.92926 6.31515 10.0163C7.00672 9.29108 7.70373 8.57169 8.39529 7.8581C8.44975 7.80008 8.4443 7.70726 8.39529 7.65504C7.7963 6.98786 7.22453 6.29748 6.68544 5.57808C6.66366 5.6593 6.64732 5.74053 6.62554 5.82175C7.74729 5.40984 8.92349 5.16037 10.1106 5.08495C10.1977 5.07915 10.2631 4.99793 10.2413 4.8993C10.0017 3.91303 9.81109 2.91516 9.68585 1.90569C9.61506 1.9463 9.54971 1.98691 9.47892 2.03333C10.0561 2.40463 10.666 2.71791 11.3031 2.97898C11.6135 3.10662 11.9294 3.21685 12.2506 3.30967C12.5066 3.38509 12.7788 3.48952 13.0511 3.48952C13.0947 3.48952 13.1491 3.46051 13.1709 3.4199C13.661 2.2944 14.2818 1.22691 15.0169 0.263849C14.9461 0.252246 14.8753 0.246445 14.8045 0.234841C15.251 1.25012 15.6594 2.28279 16.0461 3.32708C16.0461 3.30387 16.0461 3.27486 16.0461 3.25166C16.0406 3.26906 16.0406 3.28646 16.0352 3.30387C15.9971 3.45471 16.1604 3.53593 16.2639 3.44311C17.0916 2.71211 18.0554 2.14936 19.0792 1.79546C19.3678 1.69684 19.6673 1.60981 19.9613 1.54019C19.9069 1.48218 19.847 1.41836 19.7925 1.36034C19.6673 1.9347 19.542 2.50325 19.4168 3.07761C19.3569 3.36189 19.2915 3.64036 19.2316 3.92464C19.199 4.06387 19.1717 4.20891 19.1391 4.34815C19.1118 4.45838 19.0792 4.56861 19.0955 4.68464C19.1064 4.74266 19.1717 4.79487 19.2262 4.78907C20.3861 4.71945 21.5568 4.87029 22.6677 5.22999C22.9835 5.33442 23.2939 5.45045 23.5934 5.58969C23.5716 5.50846 23.5553 5.42724 23.5335 5.34602C22.9018 5.92038 22.2865 6.50633 21.6821 7.1097C21.7365 7.10389 21.791 7.09229 21.8454 7.08649C21.5677 6.92405 21.29 6.7616 21.0068 6.59916C20.9633 6.68038 20.9143 6.7674 20.8707 6.84863C21.987 7.481 23.0434 8.2352 24.0127 9.09963C24.0236 9.02421 24.029 8.94879 24.0399 8.87337C23.1251 9.40712 22.1612 9.96987 21.0885 10.0047C21.0395 10.0047 20.9959 10.0337 20.9687 10.0743C20.9524 10.1033 20.936 10.1323 20.9251 10.1671C20.9034 10.2135 20.8979 10.2715 20.9251 10.3122C21.3063 10.9677 21.5623 11.7045 21.6494 12.4645C21.6929 12.4181 21.742 12.3659 21.7855 12.3195C20.74 12.1977 19.9014 11.3971 19.1554 10.6835C19.0683 10.6022 18.9267 10.6545 18.9212 10.7879C18.9158 11.6755 18.7307 12.5574 18.3767 13.3638C18.4529 13.3638 18.5346 13.3638 18.6109 13.3638C17.9574 12.4471 17.3965 11.4551 16.9446 10.405C16.8139 10.1033 16.6941 9.80162 16.5852 9.49414C16.5579 9.41872 16.4926 9.37231 16.4164 9.39551C16.351 9.41292 16.2966 9.49994 16.3238 9.57536C16.7159 10.6661 17.2168 11.7161 17.8267 12.6908C18.001 12.9693 18.1861 13.2478 18.3767 13.5146C18.4312 13.59 18.5618 13.6249 18.6109 13.5146C18.9866 12.6618 19.1826 11.7335 19.1935 10.7937C19.1173 10.8285 19.041 10.8633 18.9594 10.8981C19.7707 11.6755 20.6529 12.4935 21.7801 12.6212C21.8454 12.627 21.9271 12.5458 21.9162 12.4761C21.8182 11.6581 21.5623 10.8749 21.1539 10.1729C21.1539 10.2193 21.1539 10.2715 21.1539 10.318C21.1702 10.289 21.1865 10.2599 21.1974 10.2251C21.1593 10.2483 21.1212 10.2715 21.0776 10.2948C22.1994 10.2599 23.2068 9.68559 24.1652 9.12284C24.2359 9.08223 24.2577 8.95459 24.1924 8.89658C23.2013 8.01474 22.134 7.24313 20.9959 6.59916C20.8435 6.51213 20.7019 6.7616 20.8598 6.84863C21.1375 7.01107 21.4152 7.17351 21.6984 7.33596C21.7528 7.36496 21.8182 7.35916 21.8618 7.31275C22.4662 6.70939 23.087 6.12343 23.7132 5.54907C23.8003 5.46785 23.7404 5.34602 23.6533 5.30541C22.5642 4.81808 21.3934 4.5396 20.2172 4.48739C19.8851 4.46998 19.5475 4.47579 19.2153 4.49319C19.2589 4.528 19.3024 4.56281 19.346 4.59762C19.346 4.58602 19.3405 4.57441 19.3405 4.55701C19.3405 4.58021 19.3405 4.60922 19.3405 4.63243C19.5747 3.56494 19.8088 2.49165 20.043 1.42416C20.0648 1.31393 19.9776 1.22111 19.8742 1.24431C18.7906 1.49378 17.745 1.96371 16.8193 2.61928C16.5525 2.80493 16.302 3.00799 16.057 3.22265C16.1332 3.26906 16.2094 3.31547 16.2857 3.36188C16.2966 3.32708 16.302 3.29227 16.302 3.25166C16.2911 3.17624 16.2476 3.09501 16.2258 3.02539C16.1768 2.88616 16.1223 2.75272 16.0733 2.61348C15.9644 2.32921 15.8555 2.04493 15.7411 1.76065C15.5179 1.1921 15.2783 0.629348 15.0387 0.0723976C15.006 -0.0088243 14.8753 -0.026229 14.8263 0.0433898C14.0748 1.02966 13.4377 2.10875 12.9368 3.25746C12.9749 3.23425 13.013 3.21104 13.0565 3.18784C12.9531 3.18784 12.8714 3.16463 12.7679 3.14143C12.61 3.10081 12.4576 3.0602 12.2996 3.01379C11.9893 2.92097 11.6843 2.81074 11.3848 2.6889C10.764 2.45104 10.1814 2.14356 9.62051 1.78386C9.53882 1.73165 9.40269 1.79546 9.41358 1.91149C9.54427 2.94417 9.72941 3.96525 9.9799 4.97472C10.0235 4.9109 10.067 4.85289 10.1106 4.78907C8.90171 4.86449 7.69828 5.11396 6.55475 5.53747C6.45129 5.57808 6.4295 5.69411 6.49485 5.78114C7.03394 6.50053 7.60571 7.19672 8.2047 7.8581C8.2047 7.78848 8.2047 7.71886 8.2047 7.65504C7.51314 8.37444 6.81613 9.08803 6.12456 9.80742C6.03199 9.90025 6.10823 10.0395 6.22258 10.0569C6.85969 10.1323 7.49136 10.2019 8.12847 10.2774C8.0849 10.2309 8.03589 10.1787 7.99233 10.1323C7.92154 10.8575 7.8562 11.5885 7.78541 12.3137C7.77452 12.4239 7.91065 12.4935 7.99233 12.4413C8.99428 11.7684 9.88188 10.9155 10.6116 9.92346C10.6551 9.85964 10.666 9.77842 10.6116 9.7204C10.5571 9.66238 10.4537 9.65078 10.4101 9.7146Z" fill="#4353FF"/>
<path d="M20.4187 12.8881C20.642 12.9809 20.8108 13.1723 21.0014 13.329C21.3009 13.5842 21.6167 13.8163 21.9108 14.0832C22.4716 14.5879 23.0053 15.1275 23.5771 15.609C23.882 15.8643 24.1924 16.1079 24.5246 16.3226C24.5953 16.369 24.7097 16.3284 24.726 16.2356C24.8622 15.3711 25.0963 14.5183 25.423 13.7177C25.4503 13.6481 25.4448 13.5552 25.374 13.5204C24.5191 13.0795 23.637 12.7082 22.7221 12.4239C22.4989 12.3543 22.2266 12.2267 21.9979 12.2151C21.7637 12.2035 21.6167 12.3717 21.3717 12.2963C20.838 12.1222 20.2771 11.9366 19.8851 11.5073C19.7979 11.4145 19.7217 11.3042 19.6291 11.2172C19.4767 11.0664 19.2915 10.9619 19.1064 10.8575C18.9757 11.5305 18.8668 12.2093 18.7688 12.8939C19.1336 12.9171 19.4985 12.9055 19.8633 12.859C19.9885 12.8416 20.1138 12.8242 20.239 12.8416C20.3044 12.8474 20.3588 12.8648 20.4187 12.8881Z" fill="#4353FF"/>
<path d="M9.6804 10.7357C9.67496 11.1476 9.67496 11.5537 9.68585 11.9656C9.6913 12.1513 9.96356 12.1513 9.95812 11.9656C9.94723 11.5595 9.94723 11.1476 9.95267 10.7357C9.95812 10.55 9.68585 10.55 9.6804 10.7357Z" fill="#4353FF"/>
<path d="M10.5027 10.0047C11.4992 10.0337 12.4957 10.0627 13.4922 10.0917C13.9714 10.1033 14.4451 10.1149 14.9189 10.1729C15.153 10.2019 15.3817 10.2367 15.6104 10.2948C15.6649 10.3064 15.7193 10.3238 15.7738 10.3354C15.7847 10.3412 15.801 10.3412 15.8174 10.347C15.8065 10.3412 15.8174 10.3238 15.8174 10.3528C15.8119 10.4746 15.8065 10.6022 15.7956 10.7241C15.7466 11.2926 15.6486 11.8554 15.5015 12.4065C15.4525 12.5864 15.7139 12.6618 15.7629 12.4819C15.899 11.9598 15.9971 11.4261 16.0515 10.8923C16.0624 10.7647 16.0733 10.637 16.0842 10.5036C16.0896 10.3818 16.1114 10.2425 16.0243 10.1439C15.9426 10.0511 15.8119 10.0337 15.703 10.0105C15.5832 9.98147 15.458 9.95827 15.3327 9.93506C14.8372 9.85384 14.3362 9.82483 13.8407 9.80742C13.3179 9.79002 12.7952 9.77842 12.2724 9.76101C11.6843 9.74361 11.0962 9.7262 10.5027 9.7088C10.3284 9.7088 10.3284 9.99888 10.5027 10.0047Z" fill="#4353FF"/>
<path d="M9.81654 12.1977C11.2814 12.2905 12.7462 12.3891 14.211 12.4819C14.6248 12.511 15.0441 12.5342 15.458 12.5632C15.6322 12.5748 15.6322 12.2847 15.458 12.2731C13.9932 12.1803 12.5283 12.0816 11.0635 11.9888C10.6497 11.9598 10.2304 11.9366 9.81654 11.9076C9.63684 11.896 9.64229 12.1861 9.81654 12.1977Z" fill="#4353FF"/>
<path d="M10.3665 12.3833C10.8239 12.3427 11.2868 12.3833 11.7442 12.4471C12.2016 12.5052 12.659 12.5748 13.1164 12.6386C13.3833 12.6734 13.6447 12.714 13.9115 12.7488C13.9823 12.7604 14.0476 12.6734 14.0476 12.6038C14.0476 12.5168 13.9823 12.4703 13.9115 12.4587C13.4486 12.3949 12.9858 12.3253 12.5229 12.2615C12.0709 12.1977 11.6135 12.1222 11.1561 12.0932C10.8947 12.0758 10.6279 12.07 10.3665 12.0932C10.2957 12.099 10.2304 12.1571 10.2304 12.2383C10.2304 12.3137 10.2957 12.3891 10.3665 12.3833Z" fill="#4353FF"/>
<path d="M15.5451 12.6792C16.3347 12.801 17.1406 12.9229 17.9193 12.7546C17.9138 12.4529 17.7015 12.2093 17.5163 11.9714C17.1297 11.4667 16.852 10.8749 16.705 10.2483C16.6995 10.2135 16.6886 10.1787 16.6614 10.1555C16.6287 10.1265 16.5852 10.1265 16.547 10.1265C16.3401 10.1265 15.9644 10.0395 15.8936 10.2309C15.8228 10.4224 15.9208 10.8517 15.9045 11.0664C15.8936 11.2288 15.6976 12.7024 15.5451 12.6792Z" fill="#4353FF"/>
<path d="M8.71112 11.78C8.65122 11.838 8.59133 11.925 8.61855 12.0062C8.62944 12.041 8.65667 12.0642 8.6839 12.0874C8.82003 12.1919 8.99973 12.1919 9.16309 12.1919C9.41358 12.1919 9.65862 12.1861 9.90911 12.1861C9.66407 12.1861 9.82198 10.9271 9.72941 10.8633C9.56605 10.7357 8.84726 11.6407 8.71112 11.78Z" fill="#4353FF"/>
<path d="M13.307 10.5094C13.2744 10.55 13.2362 10.5964 13.2036 10.637C13.1818 10.6661 13.1491 10.7183 13.1164 10.7299C13.1382 10.7241 13.16 10.7183 13.1872 10.7125C13.1981 10.7183 13.209 10.7241 13.2199 10.7241C13.209 10.7125 13.2036 10.7009 13.1927 10.6951C13.1818 10.6835 13.1709 10.6661 13.16 10.6545C13.1328 10.6254 13.1056 10.6022 13.0729 10.579C13.0075 10.5326 12.9313 10.4978 12.8605 10.4804C12.6972 10.4398 12.5338 10.463 12.3868 10.5326C12.0818 10.6719 11.8858 10.9793 11.7333 11.281C11.6952 11.3564 11.6353 11.4435 11.6407 11.5363C11.6462 11.6697 11.7497 11.7103 11.8477 11.7393C12.0328 11.7916 12.218 11.8496 12.4031 11.896C12.5774 11.9366 12.7625 11.954 12.9204 11.8554C13.0511 11.7742 13.1491 11.6175 13.1328 11.4493C13.0947 11.0548 12.4848 10.7763 12.316 11.2114C12.2887 11.281 12.3486 11.3738 12.4085 11.3913C12.4848 11.4145 12.5447 11.3622 12.5774 11.2926C12.5882 11.2636 12.6536 11.281 12.6699 11.2868C12.7244 11.3042 12.7843 11.3448 12.8224 11.3913C12.8932 11.4725 12.8605 11.5595 12.7734 11.6117C12.6481 11.6871 12.4739 11.6233 12.3432 11.5827C12.2615 11.5595 12.1744 11.5363 12.0927 11.5131C12.0546 11.5015 12.0165 11.4899 11.9784 11.4783C11.9566 11.4725 11.9348 11.4667 11.913 11.4609C11.9021 11.4551 11.8477 11.4319 11.8695 11.4551C11.8803 11.4783 11.8912 11.4957 11.9021 11.5189C11.8967 11.5537 11.8967 11.5537 11.913 11.5189C11.9185 11.5131 11.9185 11.5015 11.9239 11.4957C11.9348 11.4667 11.9511 11.4435 11.962 11.4145C11.9838 11.368 12.011 11.3216 12.0328 11.281C12.0818 11.194 12.1363 11.107 12.1962 11.0316C12.3051 10.8981 12.4412 10.7879 12.61 10.7531C12.7571 10.7241 12.8986 10.7763 12.9912 10.8981C13.0565 10.9851 13.16 11.0374 13.258 10.9735C13.3016 10.9445 13.3343 10.8981 13.3669 10.8633C13.4105 10.8111 13.4486 10.7647 13.4922 10.7125C13.612 10.5732 13.4214 10.3644 13.307 10.5094Z" fill="#4353FF"/>
<path d="M14.9951 11.9366C15.1694 11.9366 15.1694 11.6465 14.9951 11.6465C14.8209 11.6465 14.8209 11.9366 14.9951 11.9366Z" fill="#4353FF"/>
<path d="M15.3436 11.2984C15.5179 11.2984 15.5179 11.0083 15.3436 11.0083C15.1639 11.0083 15.1639 11.2984 15.3436 11.2984Z" fill="#4353FF"/>
<path d="M14.9243 10.8111C15.0986 10.8111 15.0986 10.521 14.9243 10.521C14.7501 10.521 14.7501 10.8111 14.9243 10.8111Z" fill="#4353FF"/>
<path d="M10.6442 10.6603C10.8185 10.6603 10.8185 10.3702 10.6442 10.3702C10.47 10.3702 10.47 10.6603 10.6442 10.6603Z" fill="#4353FF"/>
<path d="M10.2957 11.1766C10.47 11.1766 10.47 10.8865 10.2957 10.8865C10.1215 10.8865 10.1215 11.1766 10.2957 11.1766Z" fill="#4353FF"/>
<path d="M10.5952 11.7626C10.7695 11.7626 10.7695 11.4725 10.5952 11.4725C10.421 11.4725 10.421 11.7626 10.5952 11.7626Z" fill="#4353FF"/>
<path d="M17.0217 9.67259C17.0217 9.67259 17.0219 9.67839 17.0274 9.67816C16.9834 9.66834 16.945 9.66409 16.901 9.65427C16.945 9.66409 16.9834 9.66834 17.0217 9.67259ZM16.1607 12.2218C16.161 12.2276 16.161 12.2276 16.1607 12.2218Z" fill="#4353FF"/>
<path d="M10.3868 11.8934C10.5829 12.1583 10.9484 12.1666 11.2642 12.1596C12.9625 12.108 14.661 12.0621 16.3592 12.0105C16.4136 12.0082 16.468 12.006 16.5161 11.9809C16.5854 11.9432 16.6259 11.8661 16.6611 11.795C16.8615 11.3629 16.9785 10.8879 17.0133 10.4045C17.0192 10.2824 17.0249 10.1544 16.966 10.0465C16.8594 9.83596 16.5909 9.80043 16.3671 9.79211C15.2806 9.7434 14.1896 9.71809 13.1047 9.70995C12.2652 9.70345 11.1591 9.44069 10.5754 10.2309C10.2186 10.7041 9.97766 11.3468 10.3868 11.8934Z" fill="#D3D3D3"/>
<path d="M11.1141 9.80833C12.665 9.61751 14.2395 9.60574 15.7892 9.78658C16.2273 9.83844 16.6604 9.90212 17.0943 9.98318C17.2646 10.0169 17.3294 9.73556 17.1537 9.70206C15.5998 9.41687 14.0148 9.30714 12.4379 9.39449C11.992 9.41843 11.5413 9.45999 11.0966 9.51291C11.0261 9.52158 10.9632 9.58221 10.9665 9.66336C10.9752 9.7443 11.0381 9.81722 11.1141 9.80833Z" fill="#4353FF"/>
<path d="M9.24444 12.2127C9.54487 12.2295 9.84647 12.2753 10.1426 12.3213C10.4442 12.3671 10.7511 12.4069 11.0572 12.4293C11.6696 12.4799 12.2799 12.4783 12.8959 12.4823C14.1116 12.4909 15.3275 12.5053 16.5434 12.5197C17.2358 12.5264 17.9283 12.5331 18.6207 12.5398C18.795 12.5385 18.7832 12.2487 18.6089 12.2499C17.3878 12.2415 16.1718 12.2271 14.9505 12.2129C14.3399 12.2087 13.7237 12.1989 13.1131 12.1947C12.4971 12.1907 11.8868 12.1923 11.2694 12.1536C10.9306 12.1325 10.5912 12.0941 10.2567 12.0438C9.91677 11.9938 9.57661 11.9379 9.23242 11.9171C9.16145 11.9142 9.09922 11.9922 9.10229 12.0675C9.10582 12.1545 9.16803 12.21 9.24444 12.2127Z" fill="#4353FF"/>
<path d="M10.2384 10.6568C10.2497 11.0686 10.2662 11.4744 10.2939 11.8855C10.3068 12.0708 10.5789 12.0597 10.5659 11.8745C10.5385 11.4691 10.5218 11.0576 10.5105 10.6458C10.5084 10.46 10.2363 10.4711 10.2384 10.6568Z" fill="#4353FF"/>
<path d="M11.0303 9.89302C12.0272 9.88151 13.024 9.87 14.0209 9.85849C14.5002 9.85062 14.974 9.84296 15.4497 9.88168C15.6849 9.90115 15.9148 9.92663 16.1457 9.97531C16.2005 9.98469 16.2557 9.99987 16.3105 10.0092C16.3217 10.0146 16.338 10.0139 16.3545 10.0191C16.3434 10.0137 16.3536 9.99588 16.3548 10.0249C16.3543 10.1468 16.354 10.2746 16.3481 10.3967C16.3222 10.9668 16.2472 11.5331 16.1227 12.0898C16.081 12.2714 16.3452 12.3362 16.3869 12.1545C16.5017 11.6273 16.5779 11.09 16.6107 10.5545C16.6164 10.4265 16.6221 10.2985 16.6275 10.1647C16.628 10.0428 16.6441 9.90278 16.553 9.80778C16.4677 9.71835 16.3364 9.70627 16.2266 9.6875C16.1057 9.66339 15.9796 9.64529 15.8536 9.62719C15.3551 9.56617 14.8534 9.55755 14.3576 9.56029C13.8345 9.56414 13.3117 9.57379 12.7887 9.57764C12.2004 9.58415 11.6121 9.59066 11.0183 9.59738C10.8442 9.60447 10.856 9.8943 11.0303 9.89302Z" fill="#4353FF"/>
<path d="M10.4339 12.1121C11.9012 12.1453 13.3689 12.1843 14.8362 12.2176C15.2509 12.2297 15.6708 12.2359 16.0855 12.248C16.2601 12.2526 16.2483 11.9627 16.0737 11.9582C14.6063 11.925 13.1387 11.886 11.6714 11.8527C11.2567 11.8406 10.8368 11.8344 10.4221 11.8222C10.2421 11.818 10.2593 12.1076 10.4339 12.1121Z" fill="#4353FF"/>
<path d="M10.9909 12.2752C11.4463 12.2161 11.9105 12.2378 12.3701 12.283C12.8295 12.3224 13.2893 12.3734 13.749 12.4185C14.017 12.4425 14.2798 12.4724 14.5478 12.4964C14.619 12.5051 14.6808 12.4155 14.678 12.3459C14.6744 12.259 14.6072 12.2153 14.536 12.2065C14.071 12.1616 13.6057 12.1108 13.1406 12.0659C12.6864 12.0205 12.2263 11.9637 11.7681 11.9533C11.5062 11.9465 11.2394 11.9516 10.9792 11.9854C10.9087 11.9941 10.8457 12.0547 10.849 12.1358C10.8521 12.2112 10.9205 12.2839 10.9909 12.2752Z" fill="#4353FF"/>
<path d="M16.1773 12.3604C16.9711 12.4501 17.7813 12.5391 18.5526 12.3393C18.5349 12.0381 18.3128 11.8033 18.1181 11.5731C17.7113 11.0845 17.4098 10.5045 17.2374 9.88446C17.2305 9.8499 17.2182 9.81556 17.1901 9.79348C17.1563 9.76582 17.1127 9.76759 17.0747 9.76914C16.8679 9.77755 16.489 9.70587 16.426 9.90004C16.363 10.0942 16.4784 10.5192 16.4708 10.7343C16.4665 10.8971 16.3306 12.3774 16.1773 12.3604Z" fill="#4353FF"/>
<path d="M9.3124 11.7396C9.25491 11.8 9.19859 11.8894 9.2291 11.9695C9.24139 12.0038 9.26954 12.0259 9.29769 12.048C9.43795 12.1468 9.6175 12.1395 9.78073 12.1328C10.031 12.1227 10.2756 12.1069 10.5259 12.0967C10.2811 12.1067 10.3877 10.8424 10.2926 10.7824C10.1242 10.6615 9.44276 11.595 9.3124 11.7396Z" fill="#4353FF"/>
<path d="M13.8529 10.2834C13.8219 10.3253 13.7857 10.3732 13.7547 10.4151C13.7341 10.445 13.7036 10.4985 13.6714 10.5114C13.6929 10.5047 13.7145 10.498 13.7414 10.4911C13.7526 10.4965 13.7637 10.5018 13.7746 10.5014C13.7632 10.4903 13.7573 10.4789 13.7462 10.4735C13.7348 10.4624 13.7232 10.4454 13.7119 10.4343C13.6835 10.4064 13.6553 10.3843 13.6218 10.3625C13.5546 10.3187 13.477 10.2871 13.4056 10.2725C13.2407 10.2386 13.0784 10.2684 12.9343 10.344C12.6353 10.4955 12.4519 10.8107 12.3118 11.1183C12.2768 11.1952 12.2205 11.2846 12.2297 11.3771C12.2406 11.5102 12.3456 11.5466 12.4447 11.5716C12.6318 11.6162 12.8192 11.6667 13.006 11.7055C13.1818 11.739 13.3675 11.7489 13.5213 11.6439C13.6486 11.5575 13.7401 11.397 13.717 11.2295C13.6629 10.8369 13.0422 10.5834 12.8912 11.0251C12.8668 11.0957 12.9304 11.186 12.991 11.201C13.0681 11.2211 13.1258 11.1665 13.1556 11.0956C13.1653 11.0662 13.2313 11.0809 13.2479 11.086C13.303 11.1012 13.3645 11.1394 13.4045 11.1842C13.4785 11.2625 13.4494 11.3507 13.3645 11.4065C13.2424 11.4869 13.0657 11.4302 12.9335 11.395C12.8509 11.3751 12.7629 11.3554 12.6804 11.3356C12.6418 11.3255 12.6032 11.3155 12.5647 11.3054C12.5427 11.3005 12.5207 11.2956 12.4987 11.2907C12.4876 11.2853 12.4322 11.2644 12.4549 11.2867C12.4667 11.3094 12.4783 11.3264 12.4902 11.3491C12.4861 11.3841 12.4861 11.3841 12.501 11.3487C12.5062 11.3427 12.5058 11.3311 12.511 11.325C12.5207 11.2956 12.5361 11.2718 12.5458 11.2423C12.5656 11.1951 12.591 11.1476 12.6111 11.1061C12.6565 11.0172 12.7074 10.928 12.7642 10.8502C12.8676 10.7125 12.9991 10.5968 13.1664 10.5552C13.3121 10.5202 13.4557 10.5666 13.5531 10.6846C13.6219 10.7689 13.7274 10.8169 13.8228 10.7491C13.8651 10.7184 13.8959 10.6707 13.9271 10.6346C13.9685 10.5806 14.0047 10.5327 14.0461 10.4787C14.1602 10.3348 13.9613 10.1338 13.8529 10.2834Z" fill="#4353FF"/>
<path d="M15.5976 11.6408C15.7717 11.6337 15.7599 11.3439 15.5858 11.351C15.4117 11.358 15.4235 11.6479 15.5976 11.6408Z" fill="#4353FF"/>
<path d="M15.9198 10.989C16.094 10.9819 16.0822 10.6921 15.9081 10.6992C15.7285 10.7065 15.7403 10.9963 15.9198 10.989Z" fill="#4353FF"/>
<path d="M15.4811 10.5191C15.6552 10.512 15.6434 10.2222 15.4693 10.2293C15.2952 10.2363 15.307 10.5262 15.4811 10.5191Z" fill="#4353FF"/>
<path d="M11.1984 10.5423C11.3725 10.5352 11.3607 10.2454 11.1866 10.2525C11.0125 10.2595 11.0243 10.5494 11.1984 10.5423Z" fill="#4353FF"/>
<path d="M10.8712 11.0724C11.0453 11.0653 11.0335 10.7755 10.8594 10.7825C10.6853 10.7896 10.6971 11.0795 10.8712 11.0724Z" fill="#4353FF"/>
<path d="M11.1942 11.6457C11.3684 11.6386 11.3566 11.3488 11.1825 11.3558C11.0083 11.3629 11.0201 11.6528 11.1942 11.6457Z" fill="#4353FF"/>
<defs>
<filter id="filter0_i_20_216" x="1.51945" y="14.6688" width="2.38673" height="5.70166" filterUnits="userSpaceOnUse" color-interpolation-filters="sRGB">
<feFlood flood-opacity="0" result="BackgroundImageFix"/>
<feBlend mode="normal" in="SourceGraphic" in2="BackgroundImageFix" result="shape"/>
<feColorMatrix in="SourceAlpha" type="matrix" values="0 0 0 0 0 0 0 0 0 0 0 0 0 0 0 0 0 0 127 0" result="hardAlpha"/>
<feOffset dx="2.69357" dy="1.01009"/>
<feComposite in2="hardAlpha" operator="arithmetic" k2="-1" k3="1"/>
<feColorMatrix type="matrix" values="0 0 0 0 1 0 0 0 0 1 0 0 0 0 1 0 0 0 0.25 0"/>
<feBlend mode="normal" in2="shape" result="effect1_innerShadow_20_216"/>
</filter>
<filter id="filter1_i_20_216" x="10.6676" y="9.04272" width="5.83423" height="3.44751" filterUnits="userSpaceOnUse" color-interpolation-filters="sRGB">
<feFlood flood-opacity="0" result="BackgroundImageFix"/>
<feBlend mode="normal" in="SourceGraphic" in2="BackgroundImageFix" result="shape"/>
<feColorMatrix in="SourceAlpha" type="matrix" values="0 0 0 0 0 0 0 0 0 0 0 0 0 0 0 0 0 0 127 0" result="hardAlpha"/>
<feOffset dx="2.69357" dy="1.01009"/>
<feComposite in2="hardAlpha" operator="arithmetic" k2="-1" k3="1"/>
<feColorMatrix type="matrix" values="0 0 0 0 1 0 0 0 0 1 0 0 0 0 1 0 0 0 0.25 0"/>
<feBlend mode="normal" in2="shape" result="effect1_innerShadow_20_216"/>
</filter>
<filter id="filter2_i_20_216" x="11.4631" y="2.81042" width="4.24307" height="4.24304" filterUnits="userSpaceOnUse" color-interpolation-filters="sRGB">
<feFlood flood-opacity="0" result="BackgroundImageFix"/>
<feBlend mode="normal" in="SourceGraphic" in2="BackgroundImageFix" result="shape"/>
<feColorMatrix in="SourceAlpha" type="matrix" values="0 0 0 0 0 0 0 0 0 0 0 0 0 0 0 0 0 0 127 0" result="hardAlpha"/>
<feOffset dx="2.69357" dy="1.01009"/>
<feComposite in2="hardAlpha" operator="arithmetic" k2="-1" k3="1"/>
<feColorMatrix type="matrix" values="0 0 0 0 1 0 0 0 0 1 0 0 0 0 1 0 0 0 0.25 0"/>
<feBlend mode="normal" in2="shape" result="effect1_innerShadow_20_216"/>
</filter>
<filter id="filter3_i_20_216" x="2.71281" y="9.8949" width="21.6132" height="14.3204" filterUnits="userSpaceOnUse" color-interpolation-filters="sRGB">
<feFlood flood-opacity="0" result="BackgroundImageFix"/>
<feBlend mode="normal" in="SourceGraphic" in2="BackgroundImageFix" result="shape"/>
<feColorMatrix in="SourceAlpha" type="matrix" values="0 0 0 0 0 0 0 0 0 0 0 0 0 0 0 0 0 0 127 0" result="hardAlpha"/>
<feOffset dx="2.69357" dy="1.01009"/>
<feComposite in2="hardAlpha" operator="arithmetic" k2="-1" k3="1"/>
<feColorMatrix type="matrix" values="0 0 0 0 1 0 0 0 0 1 0 0 0 0 1 0 0 0 0.25 0"/>
<feBlend mode="normal" in2="shape" result="effect1_innerShadow_20_216"/>
</filter>
</defs>
</svg>
